<svg width="16" height="17" viewBox="0 0 16 17" fill="none" xmlns="http://www.w3.org/2000/svg">
<path d="M7.76807 1.29583C7.76373 1.26241 7.75285 1.23018 7.73605 1.20097C7.71925 1.17176 7.69685 1.14616 7.67014 1.12561L6.4484 0.187901C6.39451 0.146667 6.32648 0.128477 6.25921 0.137319C6.19194 0.14616 6.13091 0.181311 6.08951 0.235068L0.128962 7.98081C0.0944557 8.02564 0.0757446 8.08061 0.0757446 8.13718C0.0757446 8.19375 0.0944557 8.24873 0.128962 8.29355L6.08695 16.0352C6.12835 16.089 6.18937 16.1241 6.25664 16.1329C6.32392 16.1418 6.39195 16.1236 6.44583 16.0824L7.66553 15.1436C7.71928 15.1022 7.75443 15.0412 7.76328 14.9739C7.77212 14.9067 7.75393 14.8386 7.71269 14.7847L2.59962 8.13462L7.7168 1.48501C7.75827 1.43123 7.77671 1.36319 7.76807 1.29583Z" />
<path d="M15.4625 1.29583C15.4582 1.26241 15.4473 1.23018 15.4305 1.20097C15.4137 1.17176 15.3913 1.14616 15.3646 1.12561L14.1429 0.187901C14.089 0.146667 14.0209 0.128477 13.9537 0.137319C13.8864 0.14616 13.8254 0.181311 13.784 0.235068L7.82342 7.98081C7.78891 8.02564 7.7702 8.08061 7.7702 8.13718C7.7702 8.19375 7.78891 8.24873 7.82342 8.29355L13.7814 16.0352C13.8228 16.089 13.8838 16.1241 13.9511 16.1329C14.0184 16.1418 14.0864 16.1236 14.1403 16.0824L15.36 15.1436C15.4137 15.1022 15.4489 15.0412 15.4577 14.9739C15.4666 14.9067 15.4484 14.8386 15.4072 14.7847L10.2941 8.13462L15.4113 1.48501C15.4527 1.43123 15.4712 1.36319 15.4625 1.29583Z" />
</svg>
