<svg width="17" height="17" viewBox="0 0 17 17" fill="none" xmlns="http://www.w3.org/2000/svg">
<path d="M8.56781 1.29253C8.57215 1.25912 8.58303 1.22688 8.59983 1.19768C8.61663 1.16847 8.63903 1.14286 8.66574 1.12232L9.88748 0.184605C9.94136 0.143371 10.0094 0.125181 10.0767 0.134023C10.1439 0.142864 10.205 0.178015 10.2464 0.231772L16.2069 7.97752C16.2414 8.02234 16.2601 8.07732 16.2601 8.13389C16.2601 8.19045 16.2414 8.24543 16.2069 8.29026L10.2489 16.0319C10.2075 16.0857 10.1465 16.1208 10.0792 16.1296C10.012 16.1385 9.94393 16.1203 9.89004 16.0791L8.67035 15.1403C8.61659 15.0989 8.58144 15.0379 8.5726 14.9706C8.56376 14.9034 8.58195 14.8353 8.62318 14.7814L13.7363 8.13132L8.61908 1.48171C8.57761 1.42793 8.55917 1.35989 8.56781 1.29253Z" />
<path d="M0.873353 1.29253C0.877688 1.25912 0.888567 1.22688 0.90537 1.19768C0.922173 1.16847 0.944569 1.14286 0.971277 1.12232L2.19302 0.184605C2.2469 0.143371 2.31494 0.125181 2.38221 0.134023C2.44948 0.142864 2.51051 0.178015 2.55191 0.231772L8.51246 7.97752C8.54696 8.02234 8.56567 8.07732 8.56567 8.13389C8.56567 8.19045 8.54696 8.24543 8.51246 8.29026L2.55447 16.0319C2.51307 16.0857 2.45205 16.1208 2.38477 16.1296C2.3175 16.1385 2.24947 16.1203 2.19559 16.0791L0.975892 15.1403C0.922135 15.0989 0.886984 15.0379 0.878142 14.9706C0.869301 14.9034 0.88749 14.8353 0.928724 14.7814L6.0418 8.13132L0.924623 1.48171C0.883147 1.42793 0.864708 1.35989 0.873353 1.29253Z" />
</svg>
